# AST/ASF file generated using VICON BodyLanguage
# -----------------------------------------------
:version 1.10
:name VICON
:units
  mass 1.0
  length 0.45
  angle deg
:documentation
   .ast/.asf automatically generated from VICON data using
   VICON BodyBuilder and BodyLanguage model FoxedUp or BRILLIANT.MOD
:root
   order TX TY TZ RX RY RZ
   axis XYZ
   position 0 0 0  
   orientation 0 0 0 
:bonedata
  begin
     id 1 
     name lhipjoint
     direction 0.621036 -0.695554 0.361275 
     length 2.46325 
     axis 0 0 0  XYZ
  end
  begin
     id 2 
     name lfemur
     direction 0.34202 -0.939693 0  
     length 6.54784  
     axis 0 0 20  XYZ
    dof rx ry rz
    limits (-160.0 20.0)
           (-70.0 70.0)
           (-60.0 70.0)
  end
  begin
     id 3 
     name ltibia
     direction 0.34202 -0.939693 0   
     length 7.84737   
     axis 0 0 20   XYZ
    dof rx
    limits (-10.0 170.0)
  end
  begin
     id 4 
     name lfoot
     direction 0.0790693 -0.217241 0.97291   
     length 2.59747   
     axis -90 7.62852e-016 20   XYZ
    dof rx rz
    limits (-45.0 90.0)
           (-70.0 20.0)
  end
  begin
     id 5 
     name ltoes
     direction 1.53572e-011 -4.21898e-011 1   
     length 1.29919   
     axis -90 7.62852e-016 20   XYZ
    dof rx
    limits (-90.0 20.0)
  end
  begin
     id 6 
     name rhipjoint
     direction -0.602353 -0.708375 0.367935   
     length 2.41867  
     axis 0 0 0  XYZ 
  end
  begin
     id 7 
     name rfemur
     direction -0.34202 -0.939693 0   
     length 6.92065   
     axis 0 0 -20   XYZ
    dof rx ry rz
    limits (-160.0 20.0)
           (-70.0 70.0)
           (-70.0 60.0)
  end
  begin
     id 8 
     name rtibia
     direction -0.34202 -0.939693 0   
     length 7.88883   
     axis 0 0 -20   XYZ
    dof rx
    limits (-10.0 170.0)
 end
 begin
     id 9 
     name rfoot
     direction -0.0768692 -0.211196 0.974416   
     length 2.43714  
     axis -90 -7.62852e-016 -20   XYZ
    dof rx rz
    limits (-45.0 90.0)
           (-20.0 70.0)
  end
  begin
     id 10 
     name rtoes
     direction -1.53575e-011 -4.21933e-011 1   
     length 1.22113   
     axis -90 -7.62852e-016 -20   XYZ
    dof rx
    limits (-90.0 20.0)
  end
  begin
     id 11 
     name lowerback
     direction 0.0197937 0.98943 -0.143655   
     length 2.16931   
     axis 0 0 0   XYZ
    dof rx ry rz
    limits (-20.0 45.0)
           (-30.0 30.0)
           (-30.0 30.0)
  end
  begin
     id 12 
     name upperback
     direction -0.00183968 0.999975 0.00684288   
     length 2.17221   
     axis 0 0 0   XYZ
    dof rx ry rz
    limits (-20.0 45.0)
           (-30.0 30.0)
           (-30.0 30.0)
  end
  begin
     id 13 
     name thorax
     direction -0.00950244 0.997208 0.0740685   
     length 2.22549   
     axis 0 0 0   XYZ
    dof rx ry rz
    limits (-20.0 45.0)
           (-30.0 30.0)
           (-30.0 30.0)
  end
  begin
     id 14 
     name lowerneck
     direction 0.0218238 0.996215 0.0841425   
     length 1.77269   
     axis 0 0 0   XYZ
    dof rx ry rz
    limits (-20.0 45.0)
           (-30.0 30.0)
           (-30.0 30.0)
  end
  begin
     id 15 
     name upperneck
     direction -0.00430652 0.994214 -0.107332   
     length 1.76534   
     axis 0 0 0   XYZ
    dof rx ry rz
    limits (-20.0 45.0)
           (-30.0 30.0)
           (-30.0 30.0)
  end
  begin
     id 16
     name head
     direction -0.00328946 0.998959 -0.0454998  
     length 1.82634  
     axis 0 0 0   XYZ
    dof rx ry rz
    limits (-20.0 45.0)
           (-30.0 30.0)
           (-30.0 30.0)
  end
  begin
     id 17 
     name lclavicle
     direction 0.970962 0.239191 0.00450212  
     length 3.84872  
     axis 0 0 0   XYZ
    dof ry rz
    limits (-20.0 10.0)
           (0.0 20.0)
  end
  begin
     id 18 
     name lhumerus
     direction 1 -4.48966e-011 5.74696e-028   
     length 5.22771   
     axis 180 -30 -90   XYZ
    dof rx ry rz
    limits (-60.0 90.0)
           (-90.0 90.0)
           (-90.0 90.0)
  end
  begin
     id 19
     name lradius
     direction 1 -4.4896e-011 4.25109e-027   
     length 3.45251   
     axis 180 -30 -90   XYZ
    dof rx
    limits (-10.0 170.0)
  end
  begin
     id 20
     name lwrist
     direction 1 -4.48971e-011 1.15382e-027   
     length 1.72626   
     axis -5.52449e-016 90 90   XYZ
    dof ry
    limits (-180.0 0.0)
 end
  begin
     id 21 
     name lhand
     direction 1 -4.49034e-011 2.30765e-027   
     length 0.552119   
     axis -1.47248e-015 90 90   XYZ
    dof rx rz
    limits (-90.0 90.0)
           (-45.0 45.0)
  end
  begin
     id 22 
     name lfingers
     direction 1 -4.48951e-011 4.61529e-027   
     length 0.445133   
     axis -2.94495e-015 90 90   XYZ
    dof rx
    limits (0.0 90.0)
  end
  begin
     id 23
     name lthumb
     direction 0.707107 -6.34991e-011 0.707107   
     length 0.639124   
     axis -90 45 2.85299e-015   XYZ
    dof rx rz
    limits (-45.0 45.0)
           (-45.0 45.0)
  end
  begin
     id 24 
     name rclavicle
     direction -0.97424 0.222511 -0.0366699   
     length 3.73439  
     axis 0 0 0   XYZ 
    dof ry rz
    limits (-10.0 20.0)
           (-20.0 0.0)
  end
  begin
     id 25 
     name rhumerus
     direction -1 -4.48956e-011 -4.97258e-028  
     length 5.2398   
     axis 180 30 90   XYZ
    dof rx ry rz
    limits (-90.0 60.0)
           (-90.0 90.0)
           (-90.0 90.0)
  end
  begin
     id 26 
     name rradius
     direction -1 -4.4897e-011 -1.72611e-027   
     length 3.48042   
     axis 180 30 90   XYZ
    dof rx
    limits (-10.0 170.0)
  end
  begin
     id 27 
     name rwrist
     direction -1 -4.48976e-011 1.15382e-027   
     length 1.74021   
     axis -5.52449e-016 -90 -90   XYZ
    dof ry
    limits (-180.0 0.0)
  end
  begin
     id 28
     name rhand
     direction -1 -4.48963e-011 2.30765e-027   
     length 0.618713   
     axis -1.47248e-015 -90 -90   XYZ
    dof rx rz
    limits (-90.0 90.0)
           (-45.0 45.0)
  end
  begin
     id 29
     name rfingers
     direction -1 -4.4888e-011 4.61529e-027   
     length 0.498823   
     axis -2.94495e-015 -90 -90   XYZ
    dof rx
    limits (0.0 90.0)
  end
  begin
     id 30
     name rthumb
     direction -0.707107 -6.34968e-011 0.707107   
     length 0.716213   
     axis -90 -45 -2.85299e-015   XYZ
    dof rx rz
    limits (-45.0 45.0)
           (-45.0 45.0)
  end
:hierarchy
  begin
    root lhipjoint rhipjoint lowerback
    lhipjoint lfemur
    lfemur ltibia
    ltibia lfoot
    lfoot ltoes
    rhipjoint rfemur
    rfemur rtibia
    rtibia rfoot
    rfoot rtoes
    lowerback upperback
    upperback thorax
    thorax lowerneck lclavicle rclavicle
    lowerneck upperneck
    upperneck head
    lclavicle lhumerus
    lhumerus lradius
    lradius lwrist
    lwrist lhand lthumb
    lhand lfingers
    rclavicle rhumerus
    rhumerus rradius
    rradius rwrist
    rwrist rhand rthumb
    rhand rfingers
  end

#!OML:ASF G:\JayActor3\Patient Classification 1\Patient 1\Session 5\male.ASF
:FULLY-SPECIFIED
:DEGREES
102
root 50.2792 16.1772 -5.74094 77.2797 -89.3121 -80.3598
lowerback -0.925099 -0.307307 3.07865
upperback 2.65347 -0.500336 -0.416257
thorax 3.21943 -0.174044 -2.1731
lowerneck -4.30786 -0.626617 0.536147
upperneck -0.874189 -0.944111 4.66449
head 0.470667 -0.457066 1.3324
rclavicle 1.52971e-015 -2.48481e-017
rhumerus -33.7266 -12.6057 -83.0334
rradius 26.5166
rwrist 2.22303
rhand -19.0127 -7.05996
rfingers 7.12502
rthumb 7.29291 -36.9143
lclavicle 1.52971e-015 -2.48481e-017
lhumerus -33.374 5.31579 83.0484
lradius 29.2642
lwrist 18.2404
lhand -18.6664 12.1469
lfingers 7.12502
lthumb 7.62718 41.9893
rfemur -8.20223 5.89963 23.9874
rtibia 36.0272
rfoot -27.4095 -13.1052
rtoes 3.70051
lfemur -0.652763 3.55157 -16.5691
ltibia 20.2718
lfoot -16.335 5.47876
ltoes -5.47218
103
root 50.2705 16.1748 -5.73089 79.1465 -89.2609 -82.205
lowerback -0.928996 -0.310958 3.09747
upperback 2.62444 -0.505003 -0.412731
thorax 3.19123 -0.176555 -2.18006
lowerneck -4.31087 -0.630888 0.529324
upperneck -0.8046 -0.951713 4.66242
head 0.492958 -0.459211 1.33289
rclavicle 2.36756e-015 9.69075e-016
rhumerus -33.7383 -12.5947 -83.061
rradius 26.558
rwrist 2.19889
rhand -18.9918 -7.07204
rfingers 7.12502
rthumb 7.31305 -36.9257
lclavicle 2.36756e-015 9.69075e-016
lhumerus -33.3743 5.33278 83.0407
lradius 29.1945
lwrist 18.224
lhand -18.6241 12.144
lfingers 7.12502
lthumb 7.66794 41.985
rfemur -8.19615 5.93983 24.0182
rtibia 36.0394
rfoot -27.4681 -13.1444
rtoes 3.49298
lfemur -0.684767 3.58251 -16.537
ltibia 20.3543
lfoot -16.4245 5.41655
ltoes -5.47898
104
root 50.2615 16.1722 -5.72081 80.8162 -89.2107 -83.8583
lowerback -0.923964 -0.316355 3.11615
upperback 2.59531 -0.51171 -0.409698
thorax 3.15775 -0.180195 -2.18743
lowerneck -4.31208 -0.616753 0.532814
upperneck -0.766422 -0.934128 4.65239
head 0.504497 -0.449602 1.3295
rclavicle -1.45206e-015 7.45443e-016
rhumerus -33.7517 -12.5763 -83.0904
rradius 26.5944
rwrist 2.1767
rhand -18.9758 -7.07366
rfingers 7.12502
rthumb 7.32853 -36.9267
lclavicle -1.45206e-015 7.45443e-016
lhumerus -33.3781 5.36408 83.0286
lradius 29.1155
lwrist 18.2039
lhand -18.5823 12.1493
lfingers 7.12502
lthumb 7.70832 41.9888
rfemur -8.18341 5.96653 24.0447
rtibia 36.0511
rfoot -27.5226 -13.179
rtoes 3.25621
lfemur -0.712181 3.61591 -16.507
ltibia 20.4417
lfoot -16.504 5.35295
ltoes -5.50087
105
root 50.2519 16.1694 -5.71064 82.5939 -89.1647 -85.6259
lowerback -0.914462 -0.322175 3.13377
upperback 2.56905 -0.518858 -0.40831
thorax 3.12469 -0.184055 -2.19591
lowerneck -4.31759 -0.597621 0.53841
upperneck -0.734182 -0.909857 4.63931
head 0.514729 -0.436771 1.3249
rclavicle -2.40561e-015 -3.77691e-015
rhumerus -33.7593 -12.5524 -83.1231
rradius 26.6245
rwrist 2.15223
rhand -18.9655 -7.07942
rfingers 7.12502
rthumb 7.33843 -36.9322
lclavicle -2.40561e-015 -3.77691e-015
lhumerus -33.383 5.40588 83.0125
lradius 29.029
lwrist 18.1827
lhand -18.5397 12.1767
lfingers 7.12502
lthumb 7.74946 42.0147
rfemur -8.16297 5.98233 24.0649
rtibia 36.0637
rfoot -27.5713 -13.2083
rtoes 3.00465
lfemur -0.726407 3.64944 -16.4832
ltibia 20.5255
lfoot -16.5806 5.29226
ltoes -5.50747
106
root 50.2413 16.1667 -5.70038 84.6566 -89.1265 -87.6848
lowerback -0.904467 -0.325425 3.1481
upperback 2.54377 -0.522363 -0.411585
thorax 3.09257 -0.186102 -2.20721
lowerneck -4.31722 -0.580599 0.552616
upperneck -0.701478 -0.888592 4.61942
head 0.52406 -0.425557 1.31661
rclavicle -4.71648e-015 3.32964e-015
rhumerus -33.77 -12.5313 -83.1565
rradius 26.649
rwrist 2.13177
rhand -18.961 -7.0865
rfingers 7.12502
rthumb 7.34277 -36.9391
lclavicle -4.71648e-015 3.32964e-015
lhumerus -33.393 5.44693 82.9917
lradius 28.9327
lwrist 18.1594
lhand -18.4993 12.2212
lfingers 7.12502
lthumb 7.78848 42.0578
rfemur -8.13302 5.99292 24.0751
rtibia 36.0785
rfoot -27.6221 -13.2231
rtoes 2.76787
lfemur -0.720785 3.68022 -16.4704
ltibia 20.5975
lfoot -16.6566 5.24315
ltoes -5.51506
107
root 50.2298 16.1643 -5.69021 86.9996 -89.092 -90.0287
lowerback -0.895469 -0.326126 3.15877
upperback 2.52279 -0.522492 -0.416517
thorax 3.06567 -0.186426 -2.21808
lowerneck -4.32793 -0.563638 0.576851
upperneck -0.660388 -0.868233 4.58592
head 0.537688 -0.414594 1.30232
rclavicle 4.17914e-015 -1.88845e-015
rhumerus -33.7722 -12.514 -83.1902
rradius 26.6649
rwrist 2.11843
rhand -18.959 -7.10253
rfingers 7.12502
rthumb 7.34473 -36.955
lclavicle 4.17914e-015 -1.88845e-015
lhumerus -33.3973 5.49197 82.9689
lradius 28.8234
lwrist 18.1304
lhand -18.4643 12.2751
lfingers 7.12502
lthumb 7.82224 42.1104
rfemur -8.09408 6.00731 24.0809
rtibia 36.0956
rfoot -27.6865 -13.2138
rtoes 2.60358
lfemur -0.695776 3.70863 -16.4635
ltibia 20.6543
lfoot -16.7373 5.20411
ltoes -5.50152
108
root 50.2175 16.1619 -5.68015 89.4645 -89.0625 -92.4971
lowerback -0.892179 -0.325548 3.16123
upperback 2.50453 -0.52096 -0.421795
thorax 3.04497 -0.185991 -2.22471
lowerneck -4.33902 -0.552047 0.598688
upperneck -0.606102 -0.855275 4.55049
head 0.555651 -0.407027 1.28775
rclavicle -3.80797e-015 7.90169e-015
rhumerus -33.7747 -12.4847 -83.2262
rradius 26.6826
rwrist 2.10108
rhand -18.9593 -7.12212
rfingers 7.12502
rthumb 7.3444 -36.9747
lclavicle -3.80797e-015 7.90169e-015
lhumerus -33.4 5.5435 82.945
lradius 28.7019
lwrist 18.0942
lhand -18.4365 12.3498
lfingers 7.12502
lthumb 7.84907 42.1841
rfemur -8.049 6.02635 24.081
rtibia 36.1146
rfoot -27.7593 -13.1945
rtoes 2.48131
lfemur -0.65342 3.73603 -16.4639
ltibia 20.6947
lfoot -16.8236 5.173
ltoes -5.47566
109
root 50.2045 16.1597 -5.67032 92.1718 -89.0311 -95.2091
lowerback -0.895285 -0.322741 3.16215
upperback 2.49008 -0.516766 -0.42609
thorax 3.03199 -0.184117 -2.22945
lowerneck -4.35269 -0.547117 0.614026
upperneck -0.542344 -0.851299 4.51999
head 0.577287 -0.40367 1.27572
rclavicle -6.24308e-016 7.40473e-015
rhumerus -33.7698 -12.4572 -83.2611
rradius 26.6937
rwrist 2.09367
rhand -18.9633 -7.14715
rfingers 7.12502
rthumb 7.34054 -36.9998
lclavicle -6.24308e-016 7.40473e-015
lhumerus -33.3977 5.60061 82.9195
lradius 28.5682
lwrist 18.0481
lhand -18.4135 12.4221
lfingers 7.12502
lthumb 7.87123 42.2556
rfemur -7.99962 6.05649 24.0837
rtibia 36.1348
rfoot -27.8435 -13.1652
rtoes 2.41429
lfemur -0.598028 3.76488 -16.4634
ltibia 20.7216
lfoot -16.9185 5.14923
ltoes -5.43862
110
root 50.1907 16.1572 -5.66053 95.2167 -89.0003 -98.2604
lowerback -0.906281 -0.317442 3.16066
upperback 2.47943 -0.509533 -0.431033
thorax 3.0276 -0.180598 -2.2335
lowerneck -4.36661 -0.540688 0.623963
upperneck -0.483372 -0.84501 4.49612
head 0.597543 -0.399225 1.26676
rclavicle 1.42721e-015 2.93207e-015
rhumerus -33.7604 -12.4301 -83.2948
rradius 26.6989
rwrist 2.09349
rhand -18.9668 -7.173
rfingers 7.12502
rthumb 7.3372 -37.0258
lclavicle 1.42721e-015 2.93207e-015
lhumerus -33.391 5.66937 82.89
lradius 28.4191
lwrist 17.9877
lhand -18.3972 12.5041
lfingers 7.12502
lthumb 7.887 42.337
rfemur -7.94632 6.09238 24.0837
rtibia 36.1553
rfoot -27.9291 -13.1334
rtoes 2.35988
lfemur -0.530275 3.79493 -16.4666
ltibia 20.7391
lfoot -17.0221 5.13848
ltoes -5.41159
111
root 50.1762 16.1546 -5.65091 98.5911 -88.9663 -101.644
lowerback -0.920366 -0.309167 3.15981
upperback 2.47202 -0.498515 -0.4369
thorax 3.02853 -0.175048 -2.23877
lowerneck -4.38277 -0.533891 0.63142
upperneck -0.431116 -0.838076 4.4784
head 0.61616 -0.39456 1.26016
rclavicle 4.06111e-015 -6.16232e-015
rhumerus -33.7431 -12.4136 -83.3258
rradius 26.6925
rwrist 2.10367
rhand -18.9697 -7.19406
rfingers 7.12502
rthumb 7.33436 -37.0469
lclavicle 4.06111e-015 -6.16232e-015
lhumerus -33.3863 5.74038 82.8568
lradius 28.2613
lwrist 17.9171
lhand -18.3843 12.5819
lfingers 7.12502
lthumb 7.89941 42.4144
rfemur -7.88853 6.13572 24.0841
rtibia 36.1757
rfoot -28.0129 -13.1013
rtoes 2.31043
lfemur -0.452706 3.82885 -16.4696
ltibia 20.7522
lfoot -17.1338 5.13579
ltoes -5.38831
112
root 50.161 16.1517 -5.6416 102.041 -88.9316 -105.102
lowerback -0.940729 -0.299718 3.15465
upperback 2.46359 -0.485949 -0.444028
thorax 3.03205 -0.168765 -2.24291
lowerneck -4.38469 -0.515542 0.640415
upperneck -0.407144 -0.814601 4.46325
head 0.623255 -0.382399 1.25435
rclavicle -3.62471e-015 -4.27387e-015
rhumerus -33.7271 -12.4054 -83.3531
rradius 26.6761
rwrist 2.121
rhand -18.9725 -7.20111
rfingers 7.12502
rthumb 7.33168 -37.0541
lclavicle -3.62471e-015 -4.27387e-015
lhumerus -33.3895 5.81648 82.8195
lradius 28.0893
lwrist 17.8303
lhand -18.3851 12.646
lfingers 7.12502
lthumb 7.89868 42.4784
rfemur -7.83005 6.18075 24.0817
rtibia 36.1954
rfoot -28.0908 -13.0794
rtoes 2.23387
lfemur -0.371716 3.8656 -16.4751
ltibia 20.763
lfoot -17.2478 5.14073
ltoes -5.39218
